<?xml version="1.0" encoding="UTF-8"?><svg id="a" xmlns="http://www.w3.org/2000/svg" xmlns:xlink="http://www.w3.org/1999/xlink" viewBox="0 0 600.33 826"><defs><style>.c{fill:url(#b);}.d{letter-spacing:0em;}.e{letter-spacing:0em;}.f{fill:#fff;font-family:SportyPro-BoldXP, Sporty Pro;font-size:129.66px;}</style><linearGradient id="b" x1="16.74" y1="323.61" x2="577.29" y2="323.61" gradientTransform="matrix(1, 0, 0, 1, 0, 0)" gradientUnits="userSpaceOnUse"><stop offset="0" stop-color="#fe00cb"/><stop offset=".67" stop-color="#742ddd"/><stop offset="1" stop-color="#3642e6"/></linearGradient></defs><polygon class="c" points="297 550.5 349.2 520.36 432.97 568.73 297 647.23 16.74 485.42 16.74 161.81 297 0 577.26 161.81 577.28 416.22 493.51 367.85 493.49 210.17 297 96.73 100.51 210.17 100.51 437.06 145.7 463.15 145.7 236.26 296.99 151.5 378.55 198.44 378.3 198.58 448.28 239.1 448.28 333.42 381.32 372.31 381.32 372.31 577.29 485.43 493.47 533.8 297.28 420.53 297.28 323.8 297.28 323.8 297.28 323.8 365.73 285.41 297.14 245.51 229.47 284.63 229.47 511.51 297 550.5"/><text class="f" transform="translate(0 775.95)"><tspan x="0" y="0"></tspan><tspan class="e" x="133.55" y="0"></tspan><tspan class="d" x="267.1" y="0"></tspan></text></svg>